<?xml version="1.0" encoding="UTF-8"?>
<svg id="Camada_2" data-name="Camada 2" xmlns="http://www.w3.org/2000/svg" viewBox="0 0 2788.24 1602.99">
  <defs>
    <style>
      .cls-1 {
        fill: none;
      }

      .cls-2 {
        fill: #ead0a8;
      }

      .cls-3 {
        fill: #988d5d;
      }

      .cls-4 {
        fill: #fff;
      }

      .cls-5 {
        fill: #e9e9e9;
      }

      .cls-6 {
        fill: #1f292c;
      }

      .cls-7 {
        fill: #7a5229;
      }

      .cls-8 {
        fill: #7d4837;
      }

      .cls-9 {
        fill: #2f1e13;
      }
    </style>
  </defs>
  <g id="Camada_1-2" data-name="Camada 1">
    <path class="cls-6" d="M2745.97,501.4c-775.4-668.53-1928.29-668.53-2703.69,0-60.11,51.82-55.43,146.38,9.66,191.8l1272.7,887.95c41.75,29.13,97.23,29.13,138.97,0l1272.7-887.95c65.09-45.41,69.77-139.97,9.66-191.8Z"/>
    <path class="cls-9" d="M2683.98,505.63c-739.84-637.87-1839.87-637.88-2579.71,0-57.35,49.45-52.89,139.67,9.21,183l1214.34,847.23c39.83,27.79,92.77,27.79,132.6,0l1214.34-847.23c62.11-43.33,66.57-133.55,9.21-183Z"/>
    <path class="cls-7" d="M2580.47,512.68c-680.47-586.69-1692.22-586.69-2372.69,0-52.75,45.48-48.65,128.46,8.47,168.32l1116.89,779.24c36.64,25.56,85.32,25.56,121.96,0l1116.89-779.24c57.12-39.85,61.23-122.84,8.48-168.32Z"/>
    <path class="cls-8" d="M2459.18,520.96c-610.91-526.71-1519.22-526.71-2130.13,0-47.36,40.83-43.67,115.33,7.61,151.11l1002.71,699.58c32.89,22.95,76.6,22.95,109.49,0l1002.71-699.58c51.28-35.78,54.97-110.28,7.61-151.11Z"/>
    <path class="cls-3" d="M2294.64,532.18c-516.52-445.33-1284.51-445.33-1801.03,0-40.04,34.52-36.93,97.51,6.43,127.76l847.8,591.5c27.81,19.4,64.77,19.4,92.58,0l847.8-591.5c43.36-30.25,46.47-93.24,6.43-127.76Z"/>
    <path class="cls-2" d="M2043,549.34c-372.19-320.89-925.57-320.89-1297.75,0-28.85,24.88-26.61,70.26,4.64,92.06l610.89,426.21c20.04,13.98,46.67,13.98,66.71,0l610.89-426.21c31.24-21.8,33.49-67.19,4.64-92.06Z"/>
    <path class="cls-5" d="M1785.4,589.06c-224.43-193.5-558.12-193.5-782.55,0-17.4,15-16.04,42.37,2.8,55.51l368.37,257.01c12.08,8.43,28.14,8.43,40.22,0l368.37-257.01c18.84-13.14,20.19-40.51,2.8-55.51Z"/>
    <path class="cls-4" d="M1562.35,604.27c-96.49-83.19-239.96-83.19-336.45,0-7.48,6.45-6.9,18.22,1.2,23.87l158.38,110.5c5.2,3.62,12.1,3.62,17.29,0l158.38-110.5c8.1-5.65,8.68-17.42,1.2-23.87Z"/>
    <rect class="cls-1" x="138.99" y="303.27" width="1920" height="1080"/>
  </g>
</svg>