<?xml version="1.0" encoding="UTF-8"?>
<svg id="Camada_2" data-name="Camada 2" xmlns="http://www.w3.org/2000/svg" viewBox="0 0 566.13 161.53">
  <defs>
    <style>
      .cls-1 {
        letter-spacing: .25em;
      }

      .cls-2 {
        letter-spacing: .25em;
      }

      .cls-3 {
        letter-spacing: .23em;
      }

      .cls-4 {
        letter-spacing: .24em;
      }

      .cls-5 {
        fill: #988d5d;
      }

      .cls-6, .cls-7 {
        fill: #7a5229;
      }

      .cls-8 {
        fill: #7d4837;
      }

      .cls-7 {
        font-family: Nohemi-ExtraLight, Nohemi;
        font-size: 20.24px;
        font-weight: 200;
      }

      .cls-9 {
        fill: #2f1e13;
      }
    </style>
  </defs>
  <g id="Camada_1-2" data-name="Camada 1">
    <g>
      <path class="cls-8" d="M148.13,15.63c-20.84-20.84-54.63-20.84-75.47,0l37.73,26.33,37.73-26.33Z"/>
      <rect class="cls-5" x="211.06" y="48.07" width="15" height="92.01" rx="5.78" ry="5.78"/>
      <rect class="cls-5" x="88.27" y="53.72" width="15" height="86.35" rx="4.78" ry="4.78"/>
      <rect class="cls-5" x="0" y="48.07" width="15" height="92.01" rx="5.09" ry="5.09"/>
      <g>
        <rect class="cls-5" x="93.14" y="-14.1" width="10.76" height="83.97" rx="3.55" ry="3.55" transform="translate(19.17 92.59) rotate(-55)"/>
        <rect class="cls-5" x="183.8" y="-14.1" width="10.76" height="83.97" rx="3.55" ry="3.55" transform="translate(57.83 166.86) rotate(-55)"/>
      </g>
      <g>
        <rect class="cls-5" x="122.68" y="-14.1" width="10.76" height="83.97" rx="3.55" ry="3.55" transform="translate(178.67 148.78) rotate(-125)"/>
        <rect class="cls-5" x="32.02" y="-14.1" width="10.76" height="83.97" rx="3.55" ry="3.55" transform="translate(36.01 74.52) rotate(-125)"/>
      </g>
      <rect class="cls-5" x="106.21" y="-61.4" width="13.63" height="226.06" rx="5.56" ry="5.56" transform="translate(164.66 -61.4) rotate(90)"/>
      <rect class="cls-9" x="106.21" y="22.4" width="13.63" height="226.06" rx="5.56" ry="5.56" transform="translate(248.45 22.4) rotate(90)"/>
      <text class="cls-7" transform="translate(270.53 156.61)"><tspan class="cls-1" x="0" y="0">A</tspan><tspan class="cls-3" x="18.85" y="0">R</tspan><tspan class="cls-4" x="36.99" y="0">Q</tspan><tspan class="cls-2" x="56.85" y="0">U</tspan><tspan class="cls-1" x="75.81" y="0">ITET</tspan><tspan class="cls-2" x="134.01" y="0">U</tspan><tspan class="cls-1" x="152.97" y="0">RA</tspan></text>
      <g>
        <path class="cls-6" d="M270.74,156.61l6.02-14.47h1.4l5.95,14.47h-1.06l-1.76-4.27h-7.74l-1.77,4.27h-1.04ZM280.91,151.43l-3.47-8.46-3.51,8.46h6.98Z"/>
        <path class="cls-6" d="M290.47,156.61v-14.47h6.46c.73,0,1.39.1,1.99.3.6.2,1.12.48,1.55.85.43.36.76.8,1,1.3s.36,1.06.36,1.67c0,.56-.1,1.07-.3,1.53-.2.46-.48.86-.85,1.2s-.8.6-1.31.79-1.08.3-1.7.31c.27.02.53.09.78.21.25.12.49.27.72.47.23.2.44.44.64.72.2.28.38.6.53.95l1.87,4.16h-1.09l-1.86-4.16c-.29-.65-.69-1.14-1.19-1.48s-1.08-.51-1.73-.51h-4.88v6.15h-.99ZM296.84,149.53c.61,0,1.16-.08,1.65-.23s.91-.37,1.26-.65c.35-.28.62-.62.8-1.02.19-.4.28-.84.28-1.34s-.09-.94-.28-1.34c-.19-.4-.45-.74-.8-1.02s-.76-.5-1.26-.65-1.05-.23-1.66-.23h-5.38v6.47h5.38Z"/>
        <path class="cls-6" d="M308.43,149.38c0-.75.07-1.45.21-2.12.14-.66.35-1.27.62-1.83.27-.56.6-1.06.98-1.5s.82-.82,1.31-1.13,1.02-.55,1.59-.71,1.19-.25,1.84-.25,1.27.08,1.84.25c.58.17,1.11.4,1.59.71s.92.68,1.31,1.13c.39.44.71.94.98,1.5.27.56.48,1.17.62,1.83.14.66.22,1.37.22,2.12s-.07,1.42-.21,2.07-.33,1.25-.59,1.8c-.26.55-.57,1.05-.94,1.49-.37.44-.79.82-1.25,1.14l2.58,2.88h-1.21l-2.11-2.46c-.42.2-.87.36-1.34.46s-.97.16-1.49.16c-.65,0-1.26-.08-1.84-.25s-1.11-.4-1.59-.71-.92-.68-1.31-1.13-.72-.94-.98-1.5c-.27-.56-.47-1.17-.62-1.83-.14-.66-.21-1.37-.21-2.12ZM309.42,149.38c0,.66.06,1.29.18,1.87.12.59.29,1.12.52,1.61s.5.93.83,1.32.69.72,1.11.98.87.47,1.36.61c.49.14,1.02.21,1.58.21s1.09-.07,1.58-.21.95-.35,1.36-.61.78-.6,1.11-.98.6-.83.83-1.32.4-1.03.52-1.61c.12-.59.18-1.21.18-1.87,0-1-.13-1.9-.4-2.72-.26-.81-.64-1.51-1.13-2.08-.49-.58-1.07-1.02-1.76-1.34s-1.45-.47-2.29-.47-1.6.16-2.29.47-1.27.76-1.76,1.34c-.49.58-.86,1.27-1.13,2.08-.26.81-.4,1.72-.4,2.72Z"/>
        <path class="cls-6" d="M328.47,142.14h.99v8.4c0,.6.06,1.15.18,1.65s.29.96.51,1.36c.22.4.48.76.78,1.06.3.31.64.56,1,.76.36.2.75.36,1.17.46.41.1.84.15,1.28.15s.87-.05,1.28-.15c.41-.1.8-.26,1.17-.46.36-.2.7-.46,1-.76.3-.31.56-.66.78-1.06.22-.4.39-.86.51-1.36.12-.5.18-1.05.18-1.65v-8.4h.99v8.4c0,.69-.07,1.32-.22,1.91-.15.58-.35,1.11-.61,1.58s-.57.89-.94,1.25c-.36.36-.76.66-1.2.91-.44.24-.9.43-1.4.55s-1.01.18-1.54.18-1.04-.06-1.54-.18-.96-.31-1.4-.55c-.44-.24-.84-.54-1.2-.91-.36-.36-.67-.78-.94-1.25s-.46-1-.61-1.58c-.15-.58-.22-1.22-.22-1.91v-8.4Z"/>
        <path class="cls-6" d="M348.43,156.61h-.99v-14.47h.99v14.47Z"/>
        <path class="cls-6" d="M366.22,143.07h-5.22v13.55h-.99v-13.55h-5.22v-.93h11.43v.93Z"/>
        <path class="cls-6" d="M381.82,142.15v.93h-8.24v5.86h7.64v.93h-7.64v5.83h8.45v.93h-9.44v-14.47h9.23Z"/>
        <path class="cls-6" d="M399.26,143.07h-5.22v13.55h-.99v-13.55h-5.22v-.93h11.43v.93Z"/>
        <path class="cls-6" d="M405.63,142.14h.99v8.4c0,.6.06,1.15.18,1.65s.29.96.51,1.36c.22.4.48.76.78,1.06.3.31.64.56,1,.76.36.2.75.36,1.17.46.41.1.84.15,1.28.15s.87-.05,1.28-.15c.41-.1.8-.26,1.17-.46.36-.2.7-.46,1-.76.3-.31.56-.66.78-1.06.22-.4.39-.86.51-1.36s.18-1.05.18-1.65v-8.4h.99v8.4c0,.69-.07,1.32-.22,1.91-.15.58-.35,1.11-.61,1.58-.26.47-.57.89-.94,1.25-.36.36-.77.66-1.2.91-.44.24-.9.43-1.4.55-.5.12-1.01.18-1.54.18s-1.04-.06-1.54-.18-.96-.31-1.4-.55c-.44-.24-.84-.54-1.2-.91-.36-.36-.67-.78-.94-1.25s-.46-1-.61-1.58c-.15-.58-.22-1.22-.22-1.91v-8.4Z"/>
        <path class="cls-6" d="M424.59,156.61v-14.47h6.46c.73,0,1.39.1,1.99.3.6.2,1.12.48,1.55.85.43.36.76.8,1,1.3.24.5.36,1.06.36,1.67,0,.56-.1,1.07-.3,1.53s-.48.86-.84,1.2c-.36.34-.8.6-1.31.79-.51.19-1.08.3-1.7.31.27.02.53.09.78.21.25.12.49.27.72.47.23.2.44.44.64.72.2.28.37.6.53.95l1.87,4.16h-1.09l-1.86-4.16c-.29-.65-.69-1.14-1.19-1.48-.5-.34-1.08-.51-1.73-.51h-4.88v6.15h-.99ZM430.96,149.53c.61,0,1.16-.08,1.65-.23s.91-.37,1.26-.65.62-.62.8-1.02c.19-.4.28-.84.28-1.34s-.09-.94-.28-1.34c-.19-.4-.45-.74-.8-1.02s-.76-.5-1.26-.65-1.05-.23-1.66-.23h-5.38v6.47h5.38Z"/>
        <path class="cls-6" d="M442.31,156.61l6.02-14.47h1.4l5.95,14.47h-1.06l-1.76-4.27h-7.74l-1.77,4.27h-1.04ZM452.48,151.43l-3.47-8.46-3.51,8.46h6.98Z"/>
      </g>
      <g>
        <g>
          <path class="cls-9" d="M314.13,22.53v44.57h-5.64V28.05l-12.84,39.05h-7.92l-12.68-39.07v39.07h-5.5V22.53h9.57l12.65,39.19,12.81-39.19h9.54Z"/>
          <path class="cls-9" d="M318.88,42.59c0-2.07.42-3.95,1.27-5.62.85-1.67,2.06-3.09,3.64-4.27,1.58-1.18,3.49-2.08,5.73-2.72s4.77-.95,7.57-.95c2.96,0,5.62.36,7.96,1.07,2.35.72,4.33,1.74,5.97,3.09,1.63,1.34,2.88,2.98,3.75,4.92s1.31,4.13,1.31,6.59v22.4h-7.34v-10.69c-.48,1.66-1.22,3.15-2.2,4.47-.99,1.32-2.18,2.44-3.59,3.36-1.41.92-3.01,1.63-4.82,2.12-1.8.49-3.75.74-5.86.74s-4.18-.26-5.97-.79c-1.79-.52-3.32-1.26-4.6-2.21-1.28-.95-2.26-2.09-2.96-3.43-.7-1.34-1.04-2.82-1.04-4.46s.36-3.13,1.08-4.45c.72-1.32,1.75-2.44,3.1-3.36,1.35-.92,2.99-1.63,4.91-2.12,1.93-.49,4.09-.74,6.5-.74h15.43v-.84c0-1.48-.27-2.82-.82-4.02-.55-1.2-1.33-2.21-2.35-3.05-1.01-.84-2.25-1.48-3.7-1.92-1.45-.45-3.08-.67-4.9-.67s-3.45.18-4.8.54c-1.35.36-2.46.87-3.34,1.53s-1.53,1.45-1.96,2.38c-.43.93-.64,1.96-.64,3.09h-7.34ZM333.22,51.1c-2.72,0-4.78.41-6.17,1.24-1.4.82-2.09,2.04-2.09,3.66,0,.85.2,1.61.61,2.28.4.67,1,1.22,1.79,1.67.79.45,1.76.79,2.91,1.02s2.48.35,3.98.35c2.13,0,4.08-.23,5.85-.68,1.77-.45,3.3-1.09,4.58-1.9,1.28-.81,2.28-1.78,2.99-2.91.71-1.13,1.07-2.37,1.07-3.73v-1h-15.5Z"/>
          <path class="cls-9" d="M369.42,67.1h-8.09V29.03h8.09v12.15c.52-1.9,1.26-3.6,2.23-5.1.97-1.5,2.16-2.78,3.59-3.82,1.42-1.05,3.07-1.85,4.95-2.4,1.87-.55,3.97-.83,6.3-.83h2.02v6.66h-2c-3.22,0-5.93.26-8.11.77s-3.94,1.29-5.26,2.32-2.27,2.34-2.85,3.91c-.57,1.57-.86,3.42-.86,5.53v18.87Z"/>
          <path class="cls-9" d="M399.09,24.47h-7.11v-8.67h7.11v8.67ZM398.92,67.1h-6.78V28.89h6.78v38.22Z"/>
          <path class="cls-9" d="M421.14,28.19c2.59,0,4.89.28,6.9.85s3.72,1.38,5.1,2.44c1.38,1.05,2.44,2.33,3.16,3.83.72,1.5,1.09,3.18,1.09,5.05h-6.83c0-.95-.2-1.81-.61-2.59-.41-.78-1.01-1.44-1.81-1.99-.8-.55-1.78-.98-2.96-1.28s-2.52-.45-4.05-.45c-1.38,0-2.63.12-3.77.37-1.13.25-2.11.59-2.92,1.05-.82.45-1.45.99-1.9,1.62s-.67,1.33-.67,2.1c0,.58.13,1.09.38,1.53s.6.82,1.03,1.15c.44.32.95.6,1.53.83.59.23,1.22.43,1.89.59s1.37.31,2.09.43c.72.12,1.44.23,2.14.34l2.55.38c1.06.16,2.17.34,3.34.54,1.17.21,2.32.48,3.45.82s2.21.77,3.24,1.29c1.03.52,1.93,1.17,2.71,1.95.78.78,1.4,1.72,1.86,2.8.46,1.09.69,2.38.69,3.87,0,1.82-.37,3.43-1.1,4.85-.74,1.41-1.82,2.6-3.26,3.57-1.44.97-3.21,1.71-5.33,2.21-2.11.5-4.56.75-7.33.75s-5.41-.27-7.58-.82c-2.17-.55-3.98-1.35-5.43-2.41-1.45-1.06-2.54-2.36-3.27-3.91-.73-1.55-1.09-3.32-1.09-5.33h6.81c0,2.12.86,3.75,2.58,4.9,1.72,1.14,4.38,1.72,7.96,1.72,1.62,0,3.06-.12,4.33-.35,1.26-.23,2.33-.58,3.21-1.04.87-.46,1.54-1.02,2-1.69.46-.67.69-1.43.69-2.29,0-.67-.13-1.26-.4-1.77-.26-.51-.63-.95-1.1-1.32-.47-.37-1.03-.7-1.66-.97-.64-.27-1.33-.51-2.08-.71s-1.53-.38-2.34-.53-1.63-.29-2.46-.43l-2.53-.42c-.96-.16-1.99-.34-3.07-.54-1.08-.21-2.15-.47-3.21-.79-1.06-.32-2.08-.72-3.05-1.21-.97-.49-1.83-1.08-2.57-1.8-.74-.71-1.33-1.57-1.78-2.56-.44-.99-.66-2.16-.66-3.5,0-1.7.37-3.23,1.11-4.6.74-1.37,1.8-2.54,3.19-3.51,1.38-.97,3.07-1.72,5.05-2.24,1.98-.52,4.22-.79,6.71-.79Z"/>
          <path class="cls-9" d="M445.35,42.59c0-2.07.42-3.95,1.27-5.62.85-1.67,2.06-3.09,3.64-4.27,1.58-1.18,3.49-2.08,5.73-2.72s4.77-.95,7.57-.95c2.96,0,5.62.36,7.96,1.07,2.35.72,4.33,1.74,5.97,3.09,1.63,1.34,2.88,2.98,3.75,4.92.87,1.94,1.31,4.13,1.31,6.59v22.4h-7.34v-10.69c-.48,1.66-1.22,3.15-2.2,4.47s-2.18,2.44-3.59,3.36c-1.41.92-3.01,1.63-4.82,2.12-1.8.49-3.75.74-5.86.74s-4.18-.26-5.97-.79c-1.79-.52-3.32-1.26-4.6-2.21-1.28-.95-2.26-2.09-2.96-3.43-.7-1.34-1.04-2.82-1.04-4.46s.36-3.13,1.08-4.45c.72-1.32,1.75-2.44,3.1-3.36,1.35-.92,2.99-1.63,4.91-2.12,1.93-.49,4.09-.74,6.5-.74h15.43v-.84c0-1.48-.27-2.82-.82-4.02-.55-1.2-1.33-2.21-2.35-3.05-1.01-.84-2.25-1.48-3.7-1.92-1.45-.45-3.08-.67-4.9-.67s-3.45.18-4.8.54c-1.35.36-2.46.87-3.34,1.53s-1.53,1.45-1.96,2.38c-.43.93-.64,1.96-.64,3.09h-7.34ZM459.7,51.1c-2.72,0-4.78.41-6.17,1.24-1.4.82-2.09,2.04-2.09,3.66,0,.85.2,1.61.61,2.28.4.67,1,1.22,1.79,1.67.79.45,1.76.79,2.91,1.02s2.48.35,3.98.35c2.13,0,4.08-.23,5.85-.68,1.77-.45,3.3-1.09,4.58-1.9,1.28-.81,2.28-1.78,2.99-2.91.71-1.13,1.07-2.37,1.07-3.73v-1h-15.5Z"/>
        </g>
        <g>
          <path class="cls-9" d="M303.53,81.66v6.08h-26.59v13.22h24.48v6.08h-24.48v13.12h27.29v6.08h-34.68v-44.57h33.97Z"/>
          <path class="cls-9" d="M316.07,126.23h-6.78v-51.3h6.78v51.3Z"/>
          <path class="cls-9" d="M328.54,83.6h-7.11v-8.67h7.11v8.67ZM328.37,126.23h-6.78v-38.22h6.78v38.22Z"/>
          <path class="cls-9" d="M424.77,99.29c.51-1.93,1.22-3.66,2.13-5.21.91-1.55,1.99-2.86,3.23-3.95,1.24-1.09,2.63-1.92,4.17-2.51,1.54-.59,3.2-.88,4.97-.88,1.61,0,3.13.22,4.57.66,1.44.44,2.77,1.08,4,1.9s2.33,1.83,3.31,3,1.82,2.49,2.51,3.95c.69,1.46,1.21,3.05,1.59,4.77s.56,3.54.56,5.45-.19,3.73-.56,5.45c-.37,1.72-.9,3.32-1.59,4.78-.69,1.47-1.52,2.79-2.51,3.96s-2.09,2.17-3.31,3c-1.22.83-2.56,1.46-4,1.9-1.44.44-2.97.66-4.57.66-1.77,0-3.43-.29-4.97-.88-1.54-.59-2.93-1.43-4.17-2.51-1.24-1.09-2.32-2.41-3.23-3.96-.91-1.55-1.62-3.29-2.13-5.22v11.55h-7.18v-50.28h7.18v24.36ZM424.77,106.48c0,2.14.27,4.06.82,5.75.55,1.69,1.34,3.13,2.38,4.31,1.04,1.18,2.3,2.08,3.79,2.71,1.49.63,3.17.94,5.05.94s3.61-.3,5.08-.89c1.47-.59,2.7-1.47,3.7-2.63.99-1.16,1.75-2.59,2.26-4.3.51-1.7.77-3.67.77-5.89s-.26-4.18-.77-5.89c-.51-1.7-1.27-3.13-2.26-4.29-.99-1.15-2.23-2.03-3.7-2.62s-3.16-.89-5.08-.89-3.56.31-5.05.93c-1.49.62-2.75,1.52-3.79,2.7-1.04,1.18-1.84,2.61-2.38,4.31-.55,1.69-.82,3.61-.82,5.75Z"/>
          <path class="cls-9" d="M497.31,113.26c-.52,2.02-1.33,3.84-2.42,5.44s-2.43,2.97-4,4.08-3.36,1.97-5.36,2.56c-2,.59-4.17.89-6.51.89-1.95,0-3.79-.21-5.52-.62s-3.32-1.01-4.77-1.8c-1.45-.78-2.75-1.73-3.9-2.85-1.15-1.12-2.13-2.39-2.93-3.8-.8-1.42-1.41-2.97-1.83-4.66-.42-1.69-.63-3.48-.63-5.39s.21-3.69.63-5.36c.42-1.67,1.03-3.21,1.82-4.62.79-1.41,1.75-2.67,2.88-3.79,1.13-1.12,2.42-2.06,3.85-2.84,1.43-.78,3.01-1.37,4.72-1.78,1.71-.41,3.53-.62,5.46-.62,2.86,0,5.43.45,7.74,1.34,2.3.89,4.27,2.16,5.89,3.8,1.63,1.64,2.88,3.62,3.76,5.95s1.32,4.94,1.32,7.82c0,.42,0,.83-.03,1.23s-.05.85-.1,1.34h-30.48c.22,1.65.65,3.13,1.31,4.45.66,1.32,1.51,2.43,2.57,3.35,1.05.92,2.29,1.62,3.71,2.11,1.42.49,2.99.73,4.72.73,2.65,0,4.87-.58,6.65-1.75,1.78-1.16,3.16-2.9,4.14-5.22h7.32ZM489.92,103.85c-.24-1.57-.66-2.97-1.27-4.17-.6-1.21-1.37-2.22-2.31-3.05-.94-.83-2.04-1.45-3.3-1.88-1.26-.43-2.67-.64-4.22-.64s-3.05.22-4.38.66c-1.33.44-2.49,1.08-3.5,1.92-1.01.84-1.84,1.86-2.5,3.07-.66,1.21-1.13,2.57-1.41,4.09h22.89Z"/>
          <path class="cls-9" d="M524.49,124.83c-2.74.94-5.22,1.41-7.42,1.41-1.79,0-3.37-.31-4.74-.93-1.37-.62-2.52-1.55-3.46-2.78-.93-1.23-1.64-2.75-2.12-4.57-.48-1.82-.72-3.93-.72-6.32v-21.01h-4.88v-6.29h4.88v-9.4h6.59v9.4h11.88v6.29h-11.88v21.02c0,2.7.45,4.7,1.34,5.99.89,1.29,2.3,1.93,4.22,1.93.75,0,1.64-.1,2.68-.3,1.04-.2,2.25-.51,3.64-.93v6.48Z"/>
          <path class="cls-9" d="M565.95,113.26c-.52,2.02-1.33,3.84-2.42,5.44-1.1,1.61-2.43,2.97-4,4.08s-3.36,1.97-5.36,2.56c-2,.59-4.17.89-6.51.89-1.95,0-3.79-.21-5.52-.62s-3.32-1.01-4.77-1.8-2.75-1.73-3.9-2.85c-1.15-1.12-2.13-2.39-2.93-3.8s-1.41-2.97-1.83-4.66c-.42-1.69-.63-3.48-.63-5.39s.21-3.69.63-5.36c.42-1.67,1.03-3.21,1.82-4.62.79-1.41,1.75-2.67,2.88-3.79,1.13-1.12,2.42-2.06,3.85-2.84,1.43-.78,3.01-1.37,4.72-1.78,1.71-.41,3.53-.62,5.46-.62,2.86,0,5.43.45,7.74,1.34,2.3.89,4.27,2.16,5.89,3.8,1.63,1.64,2.88,3.62,3.76,5.95s1.32,4.94,1.32,7.82c0,.42,0,.83-.03,1.23s-.05.85-.1,1.34h-30.48c.22,1.65.65,3.13,1.31,4.45s1.51,2.43,2.57,3.35c1.05.92,2.29,1.62,3.71,2.11,1.42.49,2.99.73,4.72.73,2.65,0,4.87-.58,6.65-1.75,1.78-1.16,3.16-2.9,4.14-5.22h7.32ZM558.56,103.85c-.24-1.57-.66-2.97-1.27-4.17-.6-1.21-1.37-2.22-2.31-3.05-.94-.83-2.04-1.45-3.3-1.88-1.26-.43-2.67-.64-4.22-.64s-3.05.22-4.38.66c-1.33.44-2.49,1.08-3.5,1.92-1.01.84-1.84,1.86-2.5,3.07-.66,1.21-1.13,2.57-1.41,4.09h22.89Z"/>
          <path class="cls-9" d="M350.61,87.32c2.59,0,4.89.28,6.9.85s3.72,1.38,5.1,2.44c1.38,1.05,2.44,2.33,3.16,3.83.72,1.5,1.09,3.18,1.09,5.05h-6.83c0-.95-.2-1.81-.61-2.59-.41-.78-1.01-1.44-1.81-1.99-.8-.55-1.78-.98-2.96-1.28-1.17-.3-2.52-.45-4.05-.45-1.38,0-2.63.12-3.77.37-1.13.25-2.11.59-2.92,1.05-.82.45-1.45.99-1.9,1.62s-.67,1.33-.67,2.1c0,.58.13,1.09.38,1.53s.6.82,1.03,1.15c.44.32.95.6,1.53.83.59.23,1.22.43,1.89.59s1.37.31,2.09.43c.72.12,1.44.23,2.14.34l2.55.38c1.06.16,2.17.34,3.34.54,1.17.21,2.32.48,3.45.82,1.13.34,2.21.77,3.24,1.29,1.03.52,1.93,1.17,2.71,1.95.78.78,1.4,1.72,1.86,2.8.46,1.09.69,2.38.69,3.87,0,1.82-.37,3.43-1.1,4.85-.74,1.41-1.82,2.6-3.26,3.57-1.44.97-3.21,1.71-5.33,2.21-2.11.5-4.56.75-7.33.75s-5.41-.27-7.58-.82c-2.17-.55-3.98-1.35-5.43-2.41-1.45-1.06-2.54-2.36-3.27-3.91-.73-1.55-1.09-3.32-1.09-5.33h6.81c0,2.12.86,3.75,2.58,4.9,1.72,1.14,4.38,1.72,7.96,1.72,1.62,0,3.06-.12,4.33-.35,1.26-.23,2.33-.58,3.21-1.04.87-.46,1.54-1.02,2-1.69.46-.67.69-1.43.69-2.29,0-.67-.13-1.26-.4-1.77-.26-.51-.63-.95-1.1-1.32-.47-.37-1.03-.7-1.66-.97-.64-.27-1.33-.51-2.08-.71s-1.53-.38-2.34-.53-1.63-.29-2.46-.43l-2.53-.42c-.96-.16-1.99-.34-3.07-.54-1.08-.21-2.15-.47-3.21-.79-1.06-.32-2.08-.72-3.05-1.21-.97-.49-1.83-1.08-2.57-1.8-.74-.71-1.33-1.57-1.78-2.56-.44-.99-.66-2.16-.66-3.5,0-1.7.37-3.23,1.11-4.6.74-1.37,1.8-2.54,3.19-3.51,1.38-.97,3.07-1.72,5.05-2.24,1.98-.52,4.22-.79,6.71-.79Z"/>
          <path class="cls-9" d="M374.97,101.72c0-2.07.42-3.95,1.27-5.62.85-1.67,2.06-3.09,3.64-4.27,1.58-1.18,3.49-2.08,5.73-2.72s4.77-.95,7.57-.95c2.96,0,5.62.36,7.96,1.07,2.35.72,4.33,1.74,5.97,3.09,1.63,1.34,2.88,2.98,3.75,4.92.87,1.94,1.31,4.13,1.31,6.59v22.4h-7.34v-10.69c-.48,1.66-1.22,3.15-2.2,4.47-.99,1.32-2.18,2.44-3.59,3.36-1.41.92-3.01,1.63-4.82,2.12-1.8.49-3.75.74-5.86.74s-4.18-.26-5.97-.79c-1.79-.52-3.32-1.26-4.6-2.21-1.28-.95-2.26-2.09-2.96-3.43-.7-1.34-1.04-2.82-1.04-4.46s.36-3.13,1.08-4.45c.72-1.32,1.75-2.44,3.1-3.36,1.35-.92,2.99-1.63,4.91-2.12,1.93-.49,4.09-.74,6.5-.74h15.43v-.84c0-1.48-.27-2.82-.82-4.02-.55-1.2-1.33-2.21-2.35-3.05-1.01-.84-2.25-1.48-3.7-1.92-1.45-.45-3.08-.67-4.9-.67s-3.45.18-4.8.54c-1.35.36-2.46.87-3.34,1.53s-1.53,1.45-1.96,2.38c-.43.93-.64,1.96-.64,3.09h-7.34ZM389.31,110.24c-2.72,0-4.78.41-6.17,1.24-1.4.82-2.09,2.04-2.09,3.66,0,.85.2,1.61.61,2.28.4.67,1,1.22,1.79,1.67.79.45,1.76.79,2.91,1.02s2.48.35,3.98.35c2.13,0,4.08-.23,5.85-.68,1.77-.45,3.3-1.09,4.58-1.9,1.28-.81,2.28-1.78,2.99-2.91.71-1.13,1.07-2.37,1.07-3.73v-1h-15.5Z"/>
        </g>
      </g>
    </g>
  </g>
</svg>