<?xml version="1.0" encoding="UTF-8"?>
<svg id="Camada_2" data-name="Camada 2" xmlns="http://www.w3.org/2000/svg" viewBox="0 0 1871.28 1040.46">
  <defs>
    <style>
      .cls-1, .cls-2, .cls-3, .cls-4 {
        fill: none;
        stroke: #988d5d;
        stroke-linecap: round;
        stroke-linejoin: round;
        stroke-width: 2px;
      }

      .cls-1, .cls-5 {
        opacity: .15;
      }

      .cls-2, .cls-6 {
        opacity: .35;
      }

      .cls-7, .cls-8, .cls-5, .cls-6 {
        fill: #988d5d;
      }

      .cls-4, .cls-8 {
        opacity: .2;
      }
    </style>
  </defs>
  <g id="Camada_1-2" data-name="Camada 1">
    <path class="cls-4" d="M246.33,94.7c18.83-18.83,49.35-18.83,68.17,0"/>
    <rect class="cls-8" x="453.66" y="77.14" width="2.28" height="19.93" rx="1.14" ry="1.14"/>
    <rect class="cls-8" x="392.48" y="77.14" width="2.28" height="19.93" rx="1.14" ry="1.14"/>
    <rect class="cls-8" x="353.01" y="77.14" width="2.28" height="19.93" rx="1.14" ry="1.14"/>
    <rect class="cls-8" x="535.72" y="69.52" width="1.4" height="37.13" rx=".7" ry=".7" transform="translate(156.58 476.97) rotate(-55)"/>
    <rect class="cls-8" x="506.3" y="69.52" width="1.4" height="37.13" rx=".7" ry=".7" transform="translate(725.65 553.93) rotate(-125)"/>
    <rect class="cls-8" x="634.57" y="36.74" width="2.19" height="102.94" rx="1.1" ry="1.1" transform="translate(723.87 -547.46) rotate(90)"/>
    <path class="cls-4" d="M718.11,94.7c18.83-18.83,49.35-18.83,68.17,0"/>
    <rect class="cls-8" x="925.44" y="77.14" width="2.28" height="19.93" rx="1.14" ry="1.14"/>
    <rect class="cls-8" x="864.26" y="77.14" width="2.28" height="19.93" rx="1.14" ry="1.14"/>
    <rect class="cls-8" x="824.79" y="77.14" width="2.28" height="19.93" rx="1.14" ry="1.14"/>
    <rect class="cls-8" x="1007.5" y="69.52" width="1.4" height="37.13" rx=".7" ry=".7" transform="translate(357.76 863.43) rotate(-55)"/>
    <rect class="cls-8" x="978.08" y="69.52" width="1.4" height="37.13" rx=".7" ry=".7" transform="translate(1468.03 940.38) rotate(-125)"/>
    <rect class="cls-8" x="1106.35" y="36.74" width="2.19" height="102.94" rx="1.1" ry="1.1" transform="translate(1195.65 -1019.24) rotate(90)"/>
    <path class="cls-4" d="M1189.89,94.7c18.83-18.83,49.35-18.83,68.17,0"/>
    <rect class="cls-8" x="1397.22" y="77.14" width="2.28" height="19.93" rx="1.14" ry="1.14"/>
    <rect class="cls-8" x="1336.04" y="77.14" width="2.28" height="19.93" rx="1.14" ry="1.14"/>
    <rect class="cls-8" x="1296.57" y="77.14" width="2.28" height="19.93" rx="1.14" ry="1.14"/>
    <rect class="cls-8" x="1479.28" y="69.52" width="1.4" height="37.13" rx=".7" ry=".7" transform="translate(558.94 1249.89) rotate(-55)"/>
    <rect class="cls-8" x="1449.86" y="69.52" width="1.4" height="37.13" rx=".7" ry=".7" transform="translate(2210.42 1326.84) rotate(-125)"/>
    <rect class="cls-8" x="1578.13" y="36.74" width="2.19" height="102.94" rx="1.1" ry="1.1" transform="translate(1667.43 -1491.02) rotate(90)"/>
    <path class="cls-4" d="M1661.68,94.7c18.83-18.83,49.35-18.83,68.17,0"/>
    <rect class="cls-8" x="1807.82" y="77.14" width="2.28" height="19.93" rx="1.14" ry="1.14"/>
    <rect class="cls-8" x="1768.35" y="77.14" width="2.28" height="19.93" rx="1.14" ry="1.14"/>
    <rect class="cls-8" x="53.73" y="70.74" width="1.4" height="37.13" rx=".7" ry=".7" transform="translate(-49.94 82.67) rotate(-55)"/>
    <rect class="cls-8" x="24.31" y="70.74" width="1.4" height="37.13" rx=".7" ry=".7" transform="translate(-33.8 161.01) rotate(-125)"/>
    <rect class="cls-8" x="152.57" y="37.95" width="2.19" height="102.94" rx="1.1" ry="1.1" transform="translate(243.09 -64.25) rotate(90)"/>
    <path class="cls-3" d="M1,17.56C19.83-1.27,50.35-1.27,69.17,17.56"/>
    <rect class="cls-7" x="208.33" y="0" width="2.28" height="19.93" rx="1.14" ry="1.14"/>
    <rect class="cls-7" x="147.15" y="0" width="2.28" height="19.93" rx="1.14" ry="1.14"/>
    <rect class="cls-7" x="107.67" y="0" width="2.28" height="19.93" rx="1.14" ry="1.14"/>
    <rect class="cls-7" x="290.39" y="-7.62" width="1.4" height="37.13" rx=".7" ry=".7" transform="translate(115.16 243.11) rotate(-55)"/>
    <rect class="cls-7" x="260.97" y="-7.62" width="1.4" height="37.13" rx=".7" ry=".7" transform="translate(402.79 231.57) rotate(-125)"/>
    <rect class="cls-7" x="389.23" y="-40.41" width="2.19" height="102.94" rx="1.1" ry="1.1" transform="translate(401.39 -379.27) rotate(90)"/>
    <path class="cls-4" d="M475.15,17.56c18.83-18.83,49.35-18.83,68.17,0"/>
    <rect class="cls-8" x="682.48" y="0" width="2.28" height="19.93" rx="1.14" ry="1.14"/>
    <rect class="cls-8" x="621.3" y="0" width="2.28" height="19.93" rx="1.14" ry="1.14"/>
    <rect class="cls-8" x="581.82" y="0" width="2.28" height="19.93" rx="1.14" ry="1.14"/>
    <rect class="cls-8" x="764.54" y="-7.62" width="1.4" height="37.13" rx=".7" ry=".7" transform="translate(317.35 631.51) rotate(-55)"/>
    <rect class="cls-8" x="735.12" y="-7.62" width="1.4" height="37.13" rx=".7" ry=".7" transform="translate(1148.9 619.97) rotate(-125)"/>
    <rect class="cls-8" x="863.38" y="-40.41" width="2.19" height="102.94" rx="1.1" ry="1.1" transform="translate(875.54 -853.42) rotate(90)"/>
    <path class="cls-4" d="M949.3,17.56c18.83-18.83,49.35-18.83,68.17,0"/>
    <rect class="cls-8" x="1156.63" y="0" width="2.28" height="19.93" rx="1.14" ry="1.14"/>
    <rect class="cls-8" x="1095.45" y="0" width="2.28" height="19.93" rx="1.14" ry="1.14"/>
    <rect class="cls-8" x="1055.97" y="0" width="2.28" height="19.93" rx="1.14" ry="1.14"/>
    <rect class="cls-8" x="1238.69" y="-7.62" width="1.4" height="37.13" rx=".7" ry=".7" transform="translate(519.54 1019.92) rotate(-55)"/>
    <rect class="cls-8" x="1209.27" y="-7.62" width="1.4" height="37.13" rx=".7" ry=".7" transform="translate(1895.01 1008.37) rotate(-125)"/>
    <rect class="cls-8" x="1337.53" y="-40.41" width="2.19" height="102.94" rx="1.1" ry="1.1" transform="translate(1349.69 -1327.57) rotate(90)"/>
    <path class="cls-4" d="M1423.45,17.56c18.83-18.83,49.35-18.83,68.17,0"/>
    <rect class="cls-8" x="1630.78" y="0" width="2.28" height="19.93" rx="1.14" ry="1.14"/>
    <rect class="cls-8" x="1569.6" y="0" width="2.28" height="19.93" rx="1.14" ry="1.14"/>
    <rect class="cls-8" x="1530.12" y="0" width="2.28" height="19.93" rx="1.14" ry="1.14"/>
    <rect class="cls-8" x="1712.84" y="-7.62" width="1.4" height="37.13" rx=".7" ry=".7" transform="translate(721.72 1408.31) rotate(-55)"/>
    <rect class="cls-8" x="1683.42" y="-7.62" width="1.4" height="37.13" rx=".7" ry=".7" transform="translate(2641.13 1396.77) rotate(-125)"/>
    <rect class="cls-8" x="1811.68" y="-40.41" width="2.19" height="102.94" rx="1.1" ry="1.1" transform="translate(1823.84 -1801.72) rotate(90)"/>
    <path class="cls-1" d="M246.33,252.61c18.83-18.83,49.35-18.83,68.17,0"/>
    <rect class="cls-5" x="453.66" y="235.05" width="2.28" height="19.93" rx="1.14" ry="1.14"/>
    <rect class="cls-5" x="392.48" y="235.05" width="2.28" height="19.93" rx="1.14" ry="1.14"/>
    <rect class="cls-5" x="353.01" y="235.05" width="2.28" height="19.93" rx="1.14" ry="1.14"/>
    <rect class="cls-5" x="535.72" y="227.43" width="1.4" height="37.13" rx=".7" ry=".7" transform="translate(27.23 544.31) rotate(-55)"/>
    <rect class="cls-5" x="506.3" y="227.43" width="1.4" height="37.13" rx=".7" ry=".7" transform="translate(596.3 802.41) rotate(-125)"/>
    <rect class="cls-5" x="634.57" y="194.64" width="2.19" height="102.94" rx="1.1" ry="1.1" transform="translate(881.77 -389.55) rotate(90)"/>
    <path class="cls-1" d="M718.11,252.61c18.83-18.83,49.35-18.83,68.17,0"/>
    <rect class="cls-5" x="925.44" y="235.05" width="2.28" height="19.93" rx="1.14" ry="1.14"/>
    <rect class="cls-5" x="864.26" y="235.05" width="2.28" height="19.93" rx="1.14" ry="1.14"/>
    <rect class="cls-5" x="824.79" y="235.05" width="2.28" height="19.93" rx="1.14" ry="1.14"/>
    <rect class="cls-5" x="1007.5" y="227.43" width="1.4" height="37.13" rx=".7" ry=".7" transform="translate(228.41 930.77) rotate(-55)"/>
    <rect class="cls-5" x="978.08" y="227.43" width="1.4" height="37.13" rx=".7" ry=".7" transform="translate(1338.68 1188.86) rotate(-125)"/>
    <rect class="cls-5" x="1106.35" y="194.64" width="2.19" height="102.94" rx="1.1" ry="1.1" transform="translate(1353.55 -861.33) rotate(90)"/>
    <path class="cls-1" d="M1189.89,252.61c18.83-18.83,49.35-18.83,68.17,0"/>
    <rect class="cls-5" x="1397.22" y="235.05" width="2.28" height="19.93" rx="1.14" ry="1.14"/>
    <rect class="cls-5" x="1336.04" y="235.05" width="2.28" height="19.93" rx="1.14" ry="1.14"/>
    <rect class="cls-5" x="1296.57" y="235.05" width="2.28" height="19.93" rx="1.14" ry="1.14"/>
    <rect class="cls-5" x="1479.28" y="227.43" width="1.4" height="37.13" rx=".7" ry=".7" transform="translate(429.59 1317.23) rotate(-55)"/>
    <rect class="cls-5" x="1449.86" y="227.43" width="1.4" height="37.13" rx=".7" ry=".7" transform="translate(2081.07 1575.32) rotate(-125)"/>
    <rect class="cls-5" x="1578.13" y="194.64" width="2.19" height="102.94" rx="1.1" ry="1.1" transform="translate(1825.34 -1333.11) rotate(90)"/>
    <path class="cls-2" d="M1661.68,252.61c18.83-18.83,49.35-18.83,68.17,0"/>
    <rect class="cls-6" x="1807.82" y="235.05" width="2.28" height="19.93" rx="1.14" ry="1.14"/>
    <rect class="cls-6" x="1768.35" y="235.05" width="2.28" height="19.93" rx="1.14" ry="1.14"/>
    <rect class="cls-6" x="53.73" y="228.64" width="1.4" height="37.13" rx=".7" ry=".7" transform="translate(-179.29 150) rotate(-55)"/>
    <rect class="cls-6" x="24.31" y="228.64" width="1.4" height="37.13" rx=".7" ry=".7" transform="translate(-163.15 409.49) rotate(-125)"/>
    <rect class="cls-6" x="152.57" y="195.85" width="2.19" height="102.94" rx="1.1" ry="1.1" transform="translate(400.99 93.65) rotate(90)"/>
    <path class="cls-2" d="M1,175.47c18.83-18.83,49.35-18.83,68.17,0"/>
    <rect class="cls-6" x="208.33" y="157.91" width="2.28" height="19.93" rx="1.14" ry="1.14"/>
    <rect class="cls-6" x="147.15" y="157.91" width="2.28" height="19.93" rx="1.14" ry="1.14"/>
    <rect class="cls-6" x="107.67" y="157.91" width="2.28" height="19.93" rx="1.14" ry="1.14"/>
    <rect class="cls-6" x="290.39" y="150.29" width="1.4" height="37.13" rx=".7" ry=".7" transform="translate(-14.19 310.45) rotate(-55)"/>
    <rect class="cls-6" x="260.97" y="150.29" width="1.4" height="37.13" rx=".7" ry=".7" transform="translate(273.44 480.05) rotate(-125)"/>
    <rect class="cls-6" x="389.23" y="117.5" width="2.19" height="102.94" rx="1.1" ry="1.1" transform="translate(559.3 -221.36) rotate(90)"/>
    <path class="cls-3" d="M475.15,175.47c18.83-18.83,49.35-18.83,68.17,0"/>
    <rect class="cls-7" x="682.48" y="157.91" width="2.28" height="19.93" rx="1.14" ry="1.14"/>
    <rect class="cls-7" x="621.3" y="157.91" width="2.28" height="19.93" rx="1.14" ry="1.14"/>
    <rect class="cls-7" x="581.82" y="157.91" width="2.28" height="19.93" rx="1.14" ry="1.14"/>
    <rect class="cls-7" x="764.54" y="150.29" width="1.4" height="37.13" rx=".7" ry=".7" transform="translate(188 698.85) rotate(-55)"/>
    <rect class="cls-7" x="735.12" y="150.29" width="1.4" height="37.13" rx=".7" ry=".7" transform="translate(1019.55 868.45) rotate(-125)"/>
    <rect class="cls-7" x="863.38" y="117.5" width="2.19" height="102.94" rx="1.1" ry="1.1" transform="translate(1033.45 -695.51) rotate(90)"/>
    <path class="cls-2" d="M949.3,175.47c18.83-18.83,49.35-18.83,68.17,0"/>
    <rect class="cls-6" x="1156.63" y="157.91" width="2.28" height="19.93" rx="1.14" ry="1.14"/>
    <rect class="cls-6" x="1095.45" y="157.91" width="2.28" height="19.93" rx="1.14" ry="1.14"/>
    <rect class="cls-6" x="1055.97" y="157.91" width="2.28" height="19.93" rx="1.14" ry="1.14"/>
    <rect class="cls-6" x="1238.69" y="150.29" width="1.4" height="37.13" rx=".7" ry=".7" transform="translate(390.19 1087.25) rotate(-55)"/>
    <rect class="cls-6" x="1209.27" y="150.29" width="1.4" height="37.13" rx=".7" ry=".7" transform="translate(1765.66 1256.85) rotate(-125)"/>
    <rect class="cls-6" x="1337.53" y="117.5" width="2.19" height="102.94" rx="1.1" ry="1.1" transform="translate(1507.6 -1169.66) rotate(90)"/>
    <path class="cls-3" d="M1423.45,175.47c18.83-18.83,49.35-18.83,68.17,0"/>
    <rect class="cls-7" x="1630.78" y="157.91" width="2.28" height="19.93" rx="1.14" ry="1.14"/>
    <rect class="cls-7" x="1569.6" y="157.91" width="2.28" height="19.93" rx="1.14" ry="1.14"/>
    <rect class="cls-7" x="1530.12" y="157.91" width="2.28" height="19.93" rx="1.14" ry="1.14"/>
    <rect class="cls-7" x="1712.84" y="150.29" width="1.4" height="37.13" rx=".7" ry=".7" transform="translate(592.37 1475.65) rotate(-55)"/>
    <rect class="cls-7" x="1683.42" y="150.29" width="1.4" height="37.13" rx=".7" ry=".7" transform="translate(2511.78 1645.25) rotate(-125)"/>
    <rect class="cls-7" x="1811.68" y="117.5" width="2.19" height="102.94" rx="1.1" ry="1.1" transform="translate(1981.75 -1643.81) rotate(90)"/>
    <path class="cls-1" d="M246.33,408.11c18.83-18.83,49.35-18.83,68.17,0"/>
    <rect class="cls-5" x="453.66" y="390.55" width="2.28" height="19.93" rx="1.14" ry="1.14"/>
    <rect class="cls-5" x="392.48" y="390.55" width="2.28" height="19.93" rx="1.14" ry="1.14"/>
    <rect class="cls-5" x="353.01" y="390.55" width="2.28" height="19.93" rx="1.14" ry="1.14"/>
    <rect class="cls-5" x="535.72" y="382.93" width="1.4" height="37.13" rx=".7" ry=".7" transform="translate(-100.14 610.62) rotate(-55)"/>
    <rect class="cls-5" x="506.3" y="382.93" width="1.4" height="37.13" rx=".7" ry=".7" transform="translate(468.92 1047.09) rotate(-125)"/>
    <rect class="cls-5" x="634.57" y="350.14" width="2.19" height="102.94" rx="1.1" ry="1.1" transform="translate(1037.27 -234.05) rotate(90)"/>
    <path class="cls-1" d="M718.11,408.11c18.83-18.83,49.35-18.83,68.17,0"/>
    <rect class="cls-5" x="925.44" y="390.55" width="2.28" height="19.93" rx="1.14" ry="1.14"/>
    <rect class="cls-5" x="864.26" y="390.55" width="2.28" height="19.93" rx="1.14" ry="1.14"/>
    <rect class="cls-5" x="824.79" y="390.55" width="2.28" height="19.93" rx="1.14" ry="1.14"/>
    <rect class="cls-5" x="1007.5" y="382.93" width="1.4" height="37.13" rx=".7" ry=".7" transform="translate(101.04 997.08) rotate(-55)"/>
    <rect class="cls-5" x="978.08" y="382.93" width="1.4" height="37.13" rx=".7" ry=".7" transform="translate(1211.31 1433.55) rotate(-125)"/>
    <rect class="cls-5" x="1106.35" y="350.14" width="2.19" height="102.94" rx="1.1" ry="1.1" transform="translate(1509.05 -705.83) rotate(90)"/>
    <path class="cls-1" d="M1189.89,408.11c18.83-18.83,49.35-18.83,68.17,0"/>
    <rect class="cls-5" x="1397.22" y="390.55" width="2.28" height="19.93" rx="1.14" ry="1.14"/>
    <rect class="cls-5" x="1336.04" y="390.55" width="2.28" height="19.93" rx="1.14" ry="1.14"/>
    <rect class="cls-5" x="1296.57" y="390.55" width="2.28" height="19.93" rx="1.14" ry="1.14"/>
    <rect class="cls-5" x="1479.28" y="382.93" width="1.4" height="37.13" rx=".7" ry=".7" transform="translate(302.21 1383.53) rotate(-55)"/>
    <rect class="cls-5" x="1449.86" y="382.93" width="1.4" height="37.13" rx=".7" ry=".7" transform="translate(1953.69 1820.01) rotate(-125)"/>
    <rect class="cls-5" x="1578.13" y="350.14" width="2.19" height="102.94" rx="1.1" ry="1.1" transform="translate(1980.83 -1177.61) rotate(90)"/>
    <path class="cls-2" d="M1661.68,408.11c18.83-18.83,49.35-18.83,68.17,0"/>
    <rect class="cls-6" x="1807.82" y="390.55" width="2.28" height="19.93" rx="1.14" ry="1.14"/>
    <rect class="cls-6" x="1768.35" y="390.55" width="2.28" height="19.93" rx="1.14" ry="1.14"/>
    <rect class="cls-6" x="53.73" y="384.14" width="1.4" height="37.13" rx=".7" ry=".7" transform="translate(-306.67 216.31) rotate(-55)"/>
    <rect class="cls-6" x="24.31" y="384.14" width="1.4" height="37.13" rx=".7" ry=".7" transform="translate(-290.52 654.17) rotate(-125)"/>
    <rect class="cls-6" x="152.57" y="351.35" width="2.19" height="102.94" rx="1.1" ry="1.1" transform="translate(556.49 249.15) rotate(90)"/>
    <path class="cls-2" d="M1,330.96c18.83-18.83,49.35-18.83,68.17,0"/>
    <rect class="cls-7" x="208.33" y="313.4" width="2.28" height="19.93" rx="1.14" ry="1.14"/>
    <rect class="cls-7" x="147.15" y="313.4" width="2.28" height="19.93" rx="1.14" ry="1.14"/>
    <rect class="cls-7" x="107.67" y="313.4" width="2.28" height="19.93" rx="1.14" ry="1.14"/>
    <rect class="cls-5" x="290.39" y="305.79" width="1.4" height="37.13" rx=".7" ry=".7" transform="translate(-141.57 376.76) rotate(-55)"/>
    <rect class="cls-5" x="260.97" y="305.79" width="1.4" height="37.13" rx=".7" ry=".7" transform="translate(146.06 724.74) rotate(-125)"/>
    <rect class="cls-5" x="389.23" y="273" width="2.19" height="102.94" rx="1.1" ry="1.1" transform="translate(714.79 -65.86) rotate(90)"/>
    <path class="cls-1" d="M475.15,330.96c18.83-18.83,49.35-18.83,68.17,0"/>
    <rect class="cls-5" x="682.48" y="313.4" width="2.28" height="19.93" rx="1.14" ry="1.14"/>
    <rect class="cls-5" x="621.3" y="313.4" width="2.28" height="19.93" rx="1.14" ry="1.14"/>
    <rect class="cls-5" x="581.82" y="313.4" width="2.28" height="19.93" rx="1.14" ry="1.14"/>
    <rect class="cls-5" x="764.54" y="305.79" width="1.4" height="37.13" rx=".7" ry=".7" transform="translate(60.62 765.16) rotate(-55)"/>
    <rect class="cls-5" x="735.12" y="305.79" width="1.4" height="37.13" rx=".7" ry=".7" transform="translate(892.17 1113.14) rotate(-125)"/>
    <rect class="cls-5" x="863.38" y="273" width="2.19" height="102.94" rx="1.1" ry="1.1" transform="translate(1188.95 -540.01) rotate(90)"/>
    <path class="cls-1" d="M949.3,330.96c18.83-18.83,49.35-18.83,68.17,0"/>
    <rect class="cls-5" x="1156.63" y="313.4" width="2.28" height="19.93" rx="1.14" ry="1.14"/>
    <rect class="cls-5" x="1095.45" y="313.4" width="2.28" height="19.93" rx="1.14" ry="1.14"/>
    <rect class="cls-5" x="1055.97" y="313.4" width="2.28" height="19.93" rx="1.14" ry="1.14"/>
    <rect class="cls-5" x="1238.69" y="305.79" width="1.4" height="37.13" rx=".7" ry=".7" transform="translate(262.81 1153.56) rotate(-55)"/>
    <rect class="cls-5" x="1209.27" y="305.79" width="1.4" height="37.13" rx=".7" ry=".7" transform="translate(1638.29 1501.54) rotate(-125)"/>
    <rect class="cls-5" x="1337.53" y="273" width="2.19" height="102.94" rx="1.1" ry="1.1" transform="translate(1663.1 -1014.16) rotate(90)"/>
    <path class="cls-2" d="M1423.45,330.96c18.83-18.83,49.35-18.83,68.17,0"/>
    <rect class="cls-6" x="1630.78" y="313.4" width="2.28" height="19.93" rx="1.14" ry="1.14"/>
    <rect class="cls-6" x="1569.6" y="313.4" width="2.28" height="19.93" rx="1.14" ry="1.14"/>
    <rect class="cls-6" x="1530.12" y="313.4" width="2.28" height="19.93" rx="1.14" ry="1.14"/>
    <rect class="cls-6" x="1712.84" y="305.79" width="1.4" height="37.13" rx=".7" ry=".7" transform="translate(465 1541.96) rotate(-55)"/>
    <rect class="cls-6" x="1683.42" y="305.79" width="1.4" height="37.13" rx=".7" ry=".7" transform="translate(2384.4 1889.94) rotate(-125)"/>
    <rect class="cls-6" x="1811.68" y="273" width="2.19" height="102.94" rx="1.1" ry="1.1" transform="translate(2137.25 -1488.31) rotate(90)"/>
    <path class="cls-1" d="M246.33,566.01c18.83-18.83,49.35-18.83,68.17,0"/>
    <rect class="cls-5" x="453.66" y="548.45" width="2.28" height="19.93" rx="1.14" ry="1.14"/>
    <rect class="cls-5" x="392.48" y="548.45" width="2.28" height="19.93" rx="1.14" ry="1.14"/>
    <rect class="cls-5" x="353.01" y="548.45" width="2.28" height="19.93" rx="1.14" ry="1.14"/>
    <rect class="cls-5" x="535.72" y="540.84" width="1.4" height="37.13" rx=".7" ry=".7" transform="translate(-229.49 677.95) rotate(-55)"/>
    <rect class="cls-5" x="506.3" y="540.84" width="1.4" height="37.13" rx=".7" ry=".7" transform="translate(339.57 1295.57) rotate(-125)"/>
    <rect class="cls-5" x="634.57" y="508.05" width="2.19" height="102.94" rx="1.1" ry="1.1" transform="translate(1195.18 -76.15) rotate(90)"/>
    <path class="cls-1" d="M718.11,566.01c18.83-18.83,49.35-18.83,68.17,0"/>
    <rect class="cls-5" x="925.44" y="548.45" width="2.28" height="19.93" rx="1.14" ry="1.14"/>
    <rect class="cls-5" x="864.26" y="548.45" width="2.28" height="19.93" rx="1.14" ry="1.14"/>
    <rect class="cls-5" x="824.79" y="548.45" width="2.28" height="19.93" rx="1.14" ry="1.14"/>
    <rect class="cls-5" x="1007.5" y="540.84" width="1.4" height="37.13" rx=".7" ry=".7" transform="translate(-28.31 1064.41) rotate(-55)"/>
    <rect class="cls-5" x="978.08" y="540.84" width="1.4" height="37.13" rx=".7" ry=".7" transform="translate(1081.96 1682.03) rotate(-125)"/>
    <rect class="cls-5" x="1106.35" y="508.05" width="2.19" height="102.94" rx="1.1" ry="1.1" transform="translate(1666.96 -547.93) rotate(90)"/>
    <path class="cls-1" d="M1189.89,566.01c18.83-18.83,49.35-18.83,68.17,0"/>
    <rect class="cls-5" x="1397.22" y="548.45" width="2.28" height="19.93" rx="1.14" ry="1.14"/>
    <rect class="cls-5" x="1336.04" y="548.45" width="2.28" height="19.93" rx="1.14" ry="1.14"/>
    <rect class="cls-5" x="1296.57" y="548.45" width="2.28" height="19.93" rx="1.14" ry="1.14"/>
    <rect class="cls-5" x="1479.28" y="540.84" width="1.4" height="37.13" rx=".7" ry=".7" transform="translate(172.86 1450.87) rotate(-55)"/>
    <rect class="cls-5" x="1449.86" y="540.84" width="1.4" height="37.13" rx=".7" ry=".7" transform="translate(1824.34 2068.49) rotate(-125)"/>
    <rect class="cls-5" x="1578.13" y="508.05" width="2.19" height="102.94" rx="1.1" ry="1.1" transform="translate(2138.74 -1019.71) rotate(90)"/>
    <path class="cls-2" d="M1661.68,566.01c18.83-18.83,49.35-18.83,68.17,0"/>
    <rect class="cls-6" x="1807.82" y="548.45" width="2.28" height="19.93" rx="1.14" ry="1.14"/>
    <rect class="cls-6" x="1768.35" y="548.45" width="2.28" height="19.93" rx="1.14" ry="1.14"/>
    <rect class="cls-6" x="53.73" y="542.05" width="1.4" height="37.13" rx=".7" ry=".7" transform="translate(-436.02 283.64) rotate(-55)"/>
    <rect class="cls-6" x="24.31" y="542.05" width="1.4" height="37.13" rx=".7" ry=".7" transform="translate(-419.87 902.65) rotate(-125)"/>
    <rect class="cls-6" x="152.57" y="509.26" width="2.19" height="102.94" rx="1.1" ry="1.1" transform="translate(714.4 407.06) rotate(90)"/>
    <path class="cls-2" d="M1,488.87c18.83-18.83,49.35-18.83,68.17,0"/>
    <rect class="cls-6" x="208.33" y="471.31" width="2.28" height="19.93" rx="1.14" ry="1.14"/>
    <rect class="cls-6" x="147.15" y="471.31" width="2.28" height="19.93" rx="1.14" ry="1.14"/>
    <rect class="cls-6" x="107.67" y="471.31" width="2.28" height="19.93" rx="1.14" ry="1.14"/>
    <rect class="cls-5" x="290.39" y="463.69" width="1.4" height="37.13" rx=".7" ry=".7" transform="translate(-270.92 444.09) rotate(-55)"/>
    <rect class="cls-5" x="260.97" y="463.69" width="1.4" height="37.13" rx=".7" ry=".7" transform="translate(16.71 973.22) rotate(-125)"/>
    <rect class="cls-5" x="389.23" y="430.91" width="2.19" height="102.94" rx="1.1" ry="1.1" transform="translate(872.7 92.04) rotate(90)"/>
    <path class="cls-1" d="M475.15,488.87c18.83-18.83,49.35-18.83,68.17,0"/>
    <rect class="cls-5" x="682.48" y="471.31" width="2.28" height="19.93" rx="1.14" ry="1.14"/>
    <rect class="cls-5" x="621.3" y="471.31" width="2.28" height="19.93" rx="1.14" ry="1.14"/>
    <rect class="cls-5" x="581.82" y="471.31" width="2.28" height="19.93" rx="1.14" ry="1.14"/>
    <rect class="cls-5" x="764.54" y="463.69" width="1.4" height="37.13" rx=".7" ry=".7" transform="translate(-68.73 832.49) rotate(-55)"/>
    <rect class="cls-5" x="735.12" y="463.69" width="1.4" height="37.13" rx=".7" ry=".7" transform="translate(762.82 1361.62) rotate(-125)"/>
    <rect class="cls-5" x="863.38" y="430.91" width="2.19" height="102.94" rx="1.1" ry="1.1" transform="translate(1346.85 -382.11) rotate(90)"/>
    <path class="cls-1" d="M949.3,488.87c18.83-18.83,49.35-18.83,68.17,0"/>
    <rect class="cls-5" x="1156.63" y="471.31" width="2.28" height="19.93" rx="1.14" ry="1.14"/>
    <rect class="cls-5" x="1095.45" y="471.31" width="2.28" height="19.93" rx="1.14" ry="1.14"/>
    <rect class="cls-5" x="1055.97" y="471.31" width="2.28" height="19.93" rx="1.14" ry="1.14"/>
    <rect class="cls-5" x="1238.69" y="463.69" width="1.4" height="37.13" rx=".7" ry=".7" transform="translate(133.46 1220.89) rotate(-55)"/>
    <rect class="cls-5" x="1209.27" y="463.69" width="1.4" height="37.13" rx=".7" ry=".7" transform="translate(1508.94 1750.02) rotate(-125)"/>
    <rect class="cls-5" x="1337.53" y="430.91" width="2.19" height="102.94" rx="1.1" ry="1.1" transform="translate(1821 -856.26) rotate(90)"/>
    <path class="cls-1" d="M1423.45,488.87c18.83-18.83,49.35-18.83,68.17,0"/>
    <rect class="cls-5" x="1630.78" y="471.31" width="2.28" height="19.93" rx="1.14" ry="1.14"/>
    <rect class="cls-5" x="1569.6" y="471.31" width="2.28" height="19.93" rx="1.14" ry="1.14"/>
    <rect class="cls-5" x="1530.12" y="471.31" width="2.28" height="19.93" rx="1.14" ry="1.14"/>
    <rect class="cls-6" x="1712.84" y="463.69" width="1.4" height="37.13" rx=".7" ry=".7" transform="translate(335.65 1609.29) rotate(-55)"/>
    <rect class="cls-6" x="1683.42" y="463.69" width="1.4" height="37.13" rx=".7" ry=".7" transform="translate(2255.05 2138.42) rotate(-125)"/>
    <rect class="cls-6" x="1811.68" y="430.91" width="2.19" height="102.94" rx="1.1" ry="1.1" transform="translate(2295.15 -1330.41) rotate(90)"/>
    <path class="cls-1" d="M246.33,721.51c18.83-18.83,49.35-18.83,68.17,0"/>
    <rect class="cls-5" x="453.66" y="703.95" width="2.28" height="19.93" rx="1.14" ry="1.14"/>
    <rect class="cls-5" x="392.48" y="703.95" width="2.28" height="19.93" rx="1.14" ry="1.14"/>
    <rect class="cls-5" x="353.01" y="703.95" width="2.28" height="19.93" rx="1.14" ry="1.14"/>
    <rect class="cls-5" x="535.72" y="696.33" width="1.4" height="37.13" rx=".7" ry=".7" transform="translate(-356.87 744.26) rotate(-55)"/>
    <rect class="cls-5" x="506.3" y="696.33" width="1.4" height="37.13" rx=".7" ry=".7" transform="translate(212.2 1540.26) rotate(-125)"/>
    <rect class="cls-5" x="634.57" y="663.54" width="2.19" height="102.94" rx="1.1" ry="1.1" transform="translate(1350.67 79.35) rotate(90)"/>
    <path class="cls-1" d="M718.11,721.51c18.83-18.83,49.35-18.83,68.17,0"/>
    <rect class="cls-5" x="925.44" y="703.95" width="2.28" height="19.93" rx="1.14" ry="1.14"/>
    <rect class="cls-5" x="864.26" y="703.95" width="2.28" height="19.93" rx="1.14" ry="1.14"/>
    <rect class="cls-5" x="824.79" y="703.95" width="2.28" height="19.93" rx="1.14" ry="1.14"/>
    <rect class="cls-5" x="1007.5" y="696.33" width="1.4" height="37.13" rx=".7" ry=".7" transform="translate(-155.69 1130.72) rotate(-55)"/>
    <rect class="cls-5" x="978.08" y="696.33" width="1.4" height="37.13" rx=".7" ry=".7" transform="translate(954.58 1926.72) rotate(-125)"/>
    <rect class="cls-5" x="1106.35" y="663.54" width="2.19" height="102.94" rx="1.1" ry="1.1" transform="translate(1822.46 -392.43) rotate(90)"/>
    <path class="cls-1" d="M1189.89,721.51c18.83-18.83,49.35-18.83,68.17,0"/>
    <rect class="cls-5" x="1397.22" y="703.95" width="2.28" height="19.93" rx="1.14" ry="1.14"/>
    <rect class="cls-5" x="1336.04" y="703.95" width="2.28" height="19.93" rx="1.14" ry="1.14"/>
    <rect class="cls-5" x="1296.57" y="703.95" width="2.28" height="19.93" rx="1.14" ry="1.14"/>
    <rect class="cls-5" x="1479.28" y="696.33" width="1.4" height="37.13" rx=".7" ry=".7" transform="translate(45.49 1517.18) rotate(-55)"/>
    <rect class="cls-5" x="1449.86" y="696.33" width="1.4" height="37.13" rx=".7" ry=".7" transform="translate(1696.97 2313.18) rotate(-125)"/>
    <rect class="cls-5" x="1578.13" y="663.54" width="2.19" height="102.94" rx="1.1" ry="1.1" transform="translate(2294.24 -864.21) rotate(90)"/>
    <path class="cls-3" d="M1661.68,721.51c18.83-18.83,49.35-18.83,68.17,0"/>
    <rect class="cls-7" x="1807.82" y="703.95" width="2.28" height="19.93" rx="1.14" ry="1.14"/>
    <rect class="cls-7" x="1768.35" y="703.95" width="2.28" height="19.93" rx="1.14" ry="1.14"/>
    <rect class="cls-6" x="53.73" y="697.54" width="1.4" height="37.13" rx=".7" ry=".7" transform="translate(-563.39 349.95) rotate(-55)"/>
    <rect class="cls-6" x="24.31" y="697.54" width="1.4" height="37.13" rx=".7" ry=".7" transform="translate(-547.25 1147.34) rotate(-125)"/>
    <rect class="cls-6" x="152.57" y="664.76" width="2.19" height="102.94" rx="1.1" ry="1.1" transform="translate(869.89 562.55) rotate(90)"/>
    <path class="cls-2" d="M1,644.37c18.83-18.83,49.35-18.83,68.17,0"/>
    <rect class="cls-7" x="208.33" y="626.81" width="2.28" height="19.93" rx="1.14" ry="1.14"/>
    <rect class="cls-7" x="147.15" y="626.81" width="2.28" height="19.93" rx="1.14" ry="1.14"/>
    <rect class="cls-7" x="107.67" y="626.81" width="2.28" height="19.93" rx="1.14" ry="1.14"/>
    <rect class="cls-5" x="290.39" y="619.19" width="1.4" height="37.13" rx=".7" ry=".7" transform="translate(-398.29 510.4) rotate(-55)"/>
    <rect class="cls-5" x="260.97" y="619.19" width="1.4" height="37.13" rx=".7" ry=".7" transform="translate(-110.66 1217.9) rotate(-125)"/>
    <rect class="cls-5" x="389.23" y="586.4" width="2.19" height="102.94" rx="1.1" ry="1.1" transform="translate(1028.2 247.54) rotate(90)"/>
    <path class="cls-1" d="M475.15,644.37c18.83-18.83,49.35-18.83,68.17,0"/>
    <rect class="cls-5" x="682.48" y="626.81" width="2.28" height="19.93" rx="1.14" ry="1.14"/>
    <rect class="cls-5" x="621.3" y="626.81" width="2.28" height="19.93" rx="1.14" ry="1.14"/>
    <rect class="cls-5" x="581.82" y="626.81" width="2.28" height="19.93" rx="1.14" ry="1.14"/>
    <rect class="cls-5" x="764.54" y="619.19" width="1.4" height="37.13" rx=".7" ry=".7" transform="translate(-196.1 898.8) rotate(-55)"/>
    <rect class="cls-5" x="735.12" y="619.19" width="1.4" height="37.13" rx=".7" ry=".7" transform="translate(635.45 1606.3) rotate(-125)"/>
    <rect class="cls-5" x="863.38" y="586.4" width="2.19" height="102.94" rx="1.1" ry="1.1" transform="translate(1502.35 -226.61) rotate(90)"/>
    <path class="cls-1" d="M949.3,644.37c18.83-18.83,49.35-18.83,68.17,0"/>
    <rect class="cls-5" x="1156.63" y="626.81" width="2.28" height="19.93" rx="1.14" ry="1.14"/>
    <rect class="cls-5" x="1095.45" y="626.81" width="2.28" height="19.93" rx="1.14" ry="1.14"/>
    <rect class="cls-5" x="1055.97" y="626.81" width="2.28" height="19.93" rx="1.14" ry="1.14"/>
    <rect class="cls-5" x="1238.69" y="619.19" width="1.4" height="37.13" rx=".7" ry=".7" transform="translate(6.09 1287.2) rotate(-55)"/>
    <rect class="cls-5" x="1209.27" y="619.19" width="1.4" height="37.13" rx=".7" ry=".7" transform="translate(1381.56 1994.7) rotate(-125)"/>
    <rect class="cls-5" x="1337.53" y="586.4" width="2.19" height="102.94" rx="1.1" ry="1.1" transform="translate(1976.5 -700.76) rotate(90)"/>
    <path class="cls-1" d="M1423.45,644.37c18.83-18.83,49.35-18.83,68.17,0"/>
    <rect class="cls-5" x="1630.78" y="626.81" width="2.28" height="19.93" rx="1.14" ry="1.14"/>
    <rect class="cls-5" x="1569.6" y="626.81" width="2.28" height="19.93" rx="1.14" ry="1.14"/>
    <rect class="cls-5" x="1530.12" y="626.81" width="2.28" height="19.93" rx="1.14" ry="1.14"/>
    <rect class="cls-6" x="1712.84" y="619.19" width="1.4" height="37.13" rx=".7" ry=".7" transform="translate(208.27 1675.6) rotate(-55)"/>
    <rect class="cls-6" x="1683.42" y="619.19" width="1.4" height="37.13" rx=".7" ry=".7" transform="translate(2127.68 2383.1) rotate(-125)"/>
    <rect class="cls-6" x="1811.68" y="586.4" width="2.19" height="102.94" rx="1.1" ry="1.1" transform="translate(2450.65 -1174.91) rotate(90)"/>
    <path class="cls-2" d="M246.33,879.42c18.83-18.83,49.35-18.83,68.17,0"/>
    <rect class="cls-6" x="453.66" y="861.86" width="2.28" height="19.93" rx="1.14" ry="1.14"/>
    <rect class="cls-6" x="392.48" y="861.86" width="2.28" height="19.93" rx="1.14" ry="1.14"/>
    <rect class="cls-6" x="353.01" y="861.86" width="2.28" height="19.93" rx="1.14" ry="1.14"/>
    <rect class="cls-6" x="535.72" y="854.24" width="1.4" height="37.13" rx=".7" ry=".7" transform="translate(-486.22 811.59) rotate(-55)"/>
    <rect class="cls-6" x="506.3" y="854.24" width="1.4" height="37.13" rx=".7" ry=".7" transform="translate(82.85 1788.74) rotate(-125)"/>
    <rect class="cls-6" x="634.57" y="821.45" width="2.19" height="102.94" rx="1.1" ry="1.1" transform="translate(1508.58 237.26) rotate(90)"/>
    <path class="cls-2" d="M718.11,879.42c18.83-18.83,49.35-18.83,68.17,0"/>
    <rect class="cls-6" x="925.44" y="861.86" width="2.28" height="19.93" rx="1.14" ry="1.14"/>
    <rect class="cls-6" x="864.26" y="861.86" width="2.28" height="19.93" rx="1.14" ry="1.14"/>
    <rect class="cls-6" x="824.79" y="861.86" width="2.28" height="19.93" rx="1.14" ry="1.14"/>
    <rect class="cls-6" x="1007.5" y="854.24" width="1.4" height="37.13" rx=".7" ry=".7" transform="translate(-285.04 1198.05) rotate(-55)"/>
    <rect class="cls-6" x="978.08" y="854.24" width="1.4" height="37.13" rx=".7" ry=".7" transform="translate(825.23 2175.2) rotate(-125)"/>
    <rect class="cls-6" x="1106.35" y="821.45" width="2.19" height="102.94" rx="1.1" ry="1.1" transform="translate(1980.36 -234.52) rotate(90)"/>
    <path class="cls-3" d="M1189.89,879.42c18.83-18.83,49.35-18.83,68.17,0"/>
    <rect class="cls-7" x="1397.22" y="861.86" width="2.28" height="19.93" rx="1.14" ry="1.14"/>
    <rect class="cls-7" x="1336.04" y="861.86" width="2.28" height="19.93" rx="1.14" ry="1.14"/>
    <rect class="cls-7" x="1296.57" y="861.86" width="2.28" height="19.93" rx="1.14" ry="1.14"/>
    <rect class="cls-7" x="1479.28" y="854.24" width="1.4" height="37.13" rx=".7" ry=".7" transform="translate(-83.86 1584.51) rotate(-55)"/>
    <rect class="cls-7" x="1449.86" y="854.24" width="1.4" height="37.13" rx=".7" ry=".7" transform="translate(1567.62 2561.66) rotate(-125)"/>
    <rect class="cls-7" x="1578.13" y="821.45" width="2.19" height="102.94" rx="1.1" ry="1.1" transform="translate(2452.14 -706.3) rotate(90)"/>
    <path class="cls-2" d="M1661.68,879.42c18.83-18.83,49.35-18.83,68.17,0"/>
    <rect class="cls-6" x="1807.82" y="861.86" width="2.28" height="19.93" rx="1.14" ry="1.14"/>
    <rect class="cls-6" x="1768.35" y="861.86" width="2.28" height="19.93" rx="1.14" ry="1.14"/>
    <rect class="cls-6" x="53.73" y="855.45" width="1.4" height="37.13" rx=".7" ry=".7" transform="translate(-692.74 417.29) rotate(-55)"/>
    <rect class="cls-6" x="24.31" y="855.45" width="1.4" height="37.13" rx=".7" ry=".7" transform="translate(-676.6 1395.82) rotate(-125)"/>
    <rect class="cls-6" x="152.57" y="822.66" width="2.19" height="102.94" rx="1.1" ry="1.1" transform="translate(1027.8 720.46) rotate(90)"/>
    <path class="cls-2" d="M1,802.28c18.83-18.83,49.35-18.83,68.17,0"/>
    <rect class="cls-6" x="208.33" y="784.72" width="2.28" height="19.93" rx="1.14" ry="1.14"/>
    <rect class="cls-6" x="147.15" y="784.72" width="2.28" height="19.93" rx="1.14" ry="1.14"/>
    <rect class="cls-6" x="107.67" y="784.72" width="2.28" height="19.93" rx="1.14" ry="1.14"/>
    <rect class="cls-7" x="290.39" y="777.1" width="1.4" height="37.13" rx=".7" ry=".7" transform="translate(-527.64 577.73) rotate(-55)"/>
    <rect class="cls-7" x="260.97" y="777.1" width="1.4" height="37.13" rx=".7" ry=".7" transform="translate(-240.01 1466.38) rotate(-125)"/>
    <rect class="cls-7" x="389.23" y="744.31" width="2.19" height="102.94" rx="1.1" ry="1.1" transform="translate(1186.11 405.45) rotate(90)"/>
    <path class="cls-3" d="M475.15,802.28c18.83-18.83,49.35-18.83,68.17,0"/>
    <rect class="cls-7" x="682.48" y="784.72" width="2.28" height="19.93" rx="1.14" ry="1.14"/>
    <rect class="cls-7" x="621.3" y="784.72" width="2.28" height="19.93" rx="1.14" ry="1.14"/>
    <rect class="cls-7" x="581.82" y="784.72" width="2.28" height="19.93" rx="1.14" ry="1.14"/>
    <rect class="cls-6" x="764.54" y="777.1" width="1.4" height="37.13" rx=".7" ry=".7" transform="translate(-325.45 966.13) rotate(-55)"/>
    <rect class="cls-6" x="735.12" y="777.1" width="1.4" height="37.13" rx=".7" ry=".7" transform="translate(506.09 1854.78) rotate(-125)"/>
    <rect class="cls-6" x="863.38" y="744.31" width="2.19" height="102.94" rx="1.1" ry="1.1" transform="translate(1660.26 -68.7) rotate(90)"/>
    <path class="cls-2" d="M949.3,802.28c18.83-18.83,49.35-18.83,68.17,0"/>
    <rect class="cls-6" x="1156.63" y="784.72" width="2.28" height="19.93" rx="1.14" ry="1.14"/>
    <rect class="cls-6" x="1095.45" y="784.72" width="2.28" height="19.93" rx="1.14" ry="1.14"/>
    <rect class="cls-6" x="1055.97" y="784.72" width="2.28" height="19.93" rx="1.14" ry="1.14"/>
    <rect class="cls-6" x="1238.69" y="777.1" width="1.4" height="37.13" rx=".7" ry=".7" transform="translate(-123.26 1354.54) rotate(-55)"/>
    <rect class="cls-6" x="1209.27" y="777.1" width="1.4" height="37.13" rx=".7" ry=".7" transform="translate(1252.21 2243.18) rotate(-125)"/>
    <rect class="cls-6" x="1337.53" y="744.31" width="2.19" height="102.94" rx="1.1" ry="1.1" transform="translate(2134.41 -542.85) rotate(90)"/>
    <path class="cls-2" d="M1423.45,802.28c18.83-18.83,49.35-18.83,68.17,0"/>
    <rect class="cls-6" x="1630.78" y="784.72" width="2.28" height="19.93" rx="1.14" ry="1.14"/>
    <rect class="cls-6" x="1569.6" y="784.72" width="2.28" height="19.93" rx="1.14" ry="1.14"/>
    <rect class="cls-6" x="1530.12" y="784.72" width="2.28" height="19.93" rx="1.14" ry="1.14"/>
    <rect class="cls-6" x="1712.84" y="777.1" width="1.4" height="37.13" rx=".7" ry=".7" transform="translate(78.92 1742.93) rotate(-55)"/>
    <rect class="cls-6" x="1683.42" y="777.1" width="1.4" height="37.13" rx=".7" ry=".7" transform="translate(1998.33 2631.58) rotate(-125)"/>
    <rect class="cls-6" x="1811.68" y="744.31" width="2.19" height="102.94" rx="1.1" ry="1.1" transform="translate(2608.56 -1017) rotate(90)"/>
    <path class="cls-2" d="M246.33,1034.91c18.83-18.83,49.35-18.83,68.17,0"/>
    <rect class="cls-6" x="453.66" y="1017.35" width="2.28" height="19.93" rx="1.14" ry="1.14"/>
    <rect class="cls-6" x="392.48" y="1017.35" width="2.28" height="19.93" rx="1.14" ry="1.14"/>
    <rect class="cls-6" x="353.01" y="1017.35" width="2.28" height="19.93" rx="1.14" ry="1.14"/>
    <rect class="cls-6" x="535.72" y="1009.74" width="1.4" height="37.13" rx=".7" ry=".7" transform="translate(-613.59 877.9) rotate(-55)"/>
    <rect class="cls-6" x="506.3" y="1009.74" width="1.4" height="37.13" rx=".7" ry=".7" transform="translate(-44.53 2033.42) rotate(-125)"/>
    <rect class="cls-6" x="634.57" y="976.95" width="2.19" height="102.94" rx="1.1" ry="1.1" transform="translate(1664.08 392.75) rotate(90)"/>
    <path class="cls-2" d="M718.11,1034.91c18.83-18.83,49.35-18.83,68.17,0"/>
    <rect class="cls-6" x="925.44" y="1017.35" width="2.28" height="19.93" rx="1.14" ry="1.14"/>
    <rect class="cls-6" x="864.26" y="1017.35" width="2.28" height="19.93" rx="1.14" ry="1.14"/>
    <rect class="cls-6" x="824.79" y="1017.35" width="2.28" height="19.93" rx="1.14" ry="1.14"/>
    <rect class="cls-6" x="1007.5" y="1009.74" width="1.4" height="37.13" rx=".7" ry=".7" transform="translate(-412.41 1264.36) rotate(-55)"/>
    <rect class="cls-6" x="978.08" y="1009.74" width="1.4" height="37.13" rx=".7" ry=".7" transform="translate(697.86 2419.88) rotate(-125)"/>
    <rect class="cls-6" x="1106.35" y="976.95" width="2.19" height="102.94" rx="1.1" ry="1.1" transform="translate(2135.86 -79.03) rotate(90)"/>
    <path class="cls-3" d="M1189.89,1034.91c18.83-18.83,49.35-18.83,68.17,0"/>
    <rect class="cls-7" x="1397.22" y="1017.35" width="2.28" height="19.93" rx="1.14" ry="1.14"/>
    <rect class="cls-7" x="1336.04" y="1017.35" width="2.28" height="19.93" rx="1.14" ry="1.14"/>
    <rect class="cls-7" x="1296.57" y="1017.35" width="2.28" height="19.93" rx="1.14" ry="1.14"/>
    <rect class="cls-7" x="1479.28" y="1009.74" width="1.4" height="37.13" rx=".7" ry=".7" transform="translate(-211.24 1650.82) rotate(-55)"/>
    <rect class="cls-7" x="1449.86" y="1009.74" width="1.4" height="37.13" rx=".7" ry=".7" transform="translate(1440.24 2806.34) rotate(-125)"/>
    <rect class="cls-7" x="1578.13" y="976.95" width="2.19" height="102.94" rx="1.1" ry="1.1" transform="translate(2607.64 -550.81) rotate(90)"/>
    <path class="cls-2" d="M1661.68,1034.91c18.83-18.83,49.35-18.83,68.17,0"/>
    <rect class="cls-6" x="1807.82" y="1017.35" width="2.28" height="19.93" rx="1.14" ry="1.14"/>
    <rect class="cls-6" x="1768.35" y="1017.35" width="2.28" height="19.93" rx="1.14" ry="1.14"/>
    <rect class="cls-6" x="53.73" y="1010.95" width="1.4" height="37.13" rx=".7" ry=".7" transform="translate(-820.12 483.59) rotate(-55)"/>
    <rect class="cls-6" x="24.31" y="1010.95" width="1.4" height="37.13" rx=".7" ry=".7" transform="translate(-803.98 1640.5) rotate(-125)"/>
    <rect class="cls-6" x="152.57" y="978.16" width="2.19" height="102.94" rx="1.1" ry="1.1" transform="translate(1183.3 875.96) rotate(90)"/>
    <path class="cls-3" d="M1,957.77c18.83-18.83,49.35-18.83,68.17,0"/>
    <rect class="cls-7" x="208.33" y="940.21" width="2.28" height="19.93" rx="1.14" ry="1.14"/>
    <rect class="cls-7" x="147.15" y="940.21" width="2.28" height="19.93" rx="1.14" ry="1.14"/>
    <rect class="cls-7" x="107.67" y="940.21" width="2.28" height="19.93" rx="1.14" ry="1.14"/>
    <rect class="cls-7" x="290.39" y="932.59" width="1.4" height="37.13" rx=".7" ry=".7" transform="translate(-655.02 644.04) rotate(-55)"/>
    <rect class="cls-7" x="260.97" y="932.59" width="1.4" height="37.13" rx=".7" ry=".7" transform="translate(-367.39 1711.07) rotate(-125)"/>
    <rect class="cls-7" x="389.23" y="899.81" width="2.19" height="102.94" rx="1.1" ry="1.1" transform="translate(1341.6 560.95) rotate(90)"/>
    <path class="cls-2" d="M475.15,957.77c18.83-18.83,49.35-18.83,68.17,0"/>
    <rect class="cls-6" x="682.48" y="940.21" width="2.28" height="19.93" rx="1.14" ry="1.14"/>
    <rect class="cls-6" x="621.3" y="940.21" width="2.28" height="19.93" rx="1.14" ry="1.14"/>
    <rect class="cls-6" x="581.82" y="940.21" width="2.28" height="19.93" rx="1.14" ry="1.14"/>
    <rect class="cls-6" x="764.54" y="932.59" width="1.4" height="37.13" rx=".7" ry=".7" transform="translate(-452.83 1032.44) rotate(-55)"/>
    <rect class="cls-6" x="735.12" y="932.59" width="1.4" height="37.13" rx=".7" ry=".7" transform="translate(378.72 2099.47) rotate(-125)"/>
    <rect class="cls-6" x="863.38" y="899.81" width="2.19" height="102.94" rx="1.1" ry="1.1" transform="translate(1815.75 86.79) rotate(90)"/>
    <path class="cls-2" d="M949.3,957.77c18.83-18.83,49.35-18.83,68.17,0"/>
    <rect class="cls-6" x="1156.63" y="940.21" width="2.28" height="19.93" rx="1.14" ry="1.14"/>
    <rect class="cls-6" x="1095.45" y="940.21" width="2.28" height="19.93" rx="1.14" ry="1.14"/>
    <rect class="cls-6" x="1055.97" y="940.21" width="2.28" height="19.93" rx="1.14" ry="1.14"/>
    <rect class="cls-6" x="1238.69" y="932.59" width="1.4" height="37.13" rx=".7" ry=".7" transform="translate(-250.64 1420.84) rotate(-55)"/>
    <rect class="cls-6" x="1209.27" y="932.59" width="1.4" height="37.13" rx=".7" ry=".7" transform="translate(1124.84 2487.87) rotate(-125)"/>
    <rect class="cls-6" x="1337.53" y="899.81" width="2.19" height="102.94" rx="1.1" ry="1.1" transform="translate(2289.9 -387.36) rotate(90)"/>
    <path class="cls-2" d="M1423.45,957.77c18.83-18.83,49.35-18.83,68.17,0"/>
    <rect class="cls-6" x="1630.78" y="940.21" width="2.28" height="19.93" rx="1.14" ry="1.14"/>
    <rect class="cls-6" x="1569.6" y="940.21" width="2.28" height="19.93" rx="1.14" ry="1.14"/>
    <rect class="cls-6" x="1530.12" y="940.21" width="2.28" height="19.93" rx="1.14" ry="1.14"/>
    <rect class="cls-6" x="1712.84" y="932.59" width="1.4" height="37.13" rx=".7" ry=".7" transform="translate(-48.45 1809.24) rotate(-55)"/>
    <rect class="cls-6" x="1683.42" y="932.59" width="1.4" height="37.13" rx=".7" ry=".7" transform="translate(1870.95 2876.27) rotate(-125)"/>
    <rect class="cls-6" x="1811.68" y="899.81" width="2.19" height="102.94" rx="1.1" ry="1.1" transform="translate(2764.05 -861.51) rotate(90)"/>
    <rect class="cls-8" x="1869" y="77.14" width="2.28" height="19.93" rx="1.14" ry="1.14"/>
    <rect class="cls-6" x="1869" y="235.05" width="2.28" height="19.93" rx="1.14" ry="1.14"/>
    <rect class="cls-6" x="1869" y="390.55" width="2.28" height="19.93" rx="1.14" ry="1.14"/>
    <rect class="cls-6" x="1869" y="548.45" width="2.28" height="19.93" rx="1.14" ry="1.14"/>
    <rect class="cls-7" x="1869" y="703.95" width="2.28" height="19.93" rx="1.14" ry="1.14"/>
    <rect class="cls-6" x="1869" y="861.86" width="2.28" height="19.93" rx="1.14" ry="1.14"/>
    <rect class="cls-6" x="1869" y="1017.35" width="2.28" height="19.93" rx="1.14" ry="1.14"/>
  </g>
</svg>